<mxfile host="app.diagrams.net" agent="Mozilla/5.0 (Windows NT 10.0; Win64; x64) AppleWebKit/537.36 (KHTML, like Gecko) Chrome/135.0.0.0 Safari/537.36" version="27.0.9">
  <diagram name="Page-1" id="74e2e168-ea6b-b213-b513-2b3c1d86103e">
    <mxGraphModel dx="1213" dy="604" grid="1" gridSize="10" guides="1" tooltips="1" connect="1" arrows="1" fold="1" page="1" pageScale="1" pageWidth="1100" pageHeight="850" background="none" math="0" shadow="0">
      <root>
        <mxCell id="0" />
        <mxCell id="1" parent="0" />
        <mxCell id="77e6c97f196da883-1" value="&lt;p class=&quot;MsoNormal&quot;&gt;&lt;span style=&quot;font-family: 宋体;&quot;&gt;&lt;font style=&quot;font-size: 24px;&quot;&gt;制剂门诊功能业务流程&lt;/font&gt;&lt;/span&gt;&lt;/p&gt;" style="swimlane;html=1;childLayout=stackLayout;startSize=50;rounded=0;shadow=0;labelBackgroundColor=none;strokeWidth=1;fontFamily=Verdana;fontSize=8;align=center;" parent="1" vertex="1">
          <mxGeometry x="80" y="70" width="830" height="750" as="geometry">
            <mxRectangle x="90" y="20" width="280" height="60" as="alternateBounds" />
          </mxGeometry>
        </mxCell>
        <mxCell id="77e6c97f196da883-6" value="&lt;font style=&quot;font-size: 18px; font-weight: normal;&quot;&gt;患者端&lt;/font&gt;" style="swimlane;html=1;startSize=30;" parent="77e6c97f196da883-1" vertex="1">
          <mxGeometry y="50" width="410" height="700" as="geometry" />
        </mxCell>
        <mxCell id="fR7NPAVBZMRlf3rJHc6e-5" value="" style="rounded=1;whiteSpace=wrap;html=1;arcSize=50;" vertex="1" parent="77e6c97f196da883-6">
          <mxGeometry x="50" y="60" width="120" height="60" as="geometry" />
        </mxCell>
        <mxCell id="77e6c97f196da883-7" value="&lt;font style=&quot;font-size: 18px; font-weight: normal;&quot;&gt;医生端&lt;/font&gt;" style="swimlane;html=1;startSize=30;" parent="77e6c97f196da883-1" vertex="1">
          <mxGeometry x="410" y="50" width="420" height="700" as="geometry" />
        </mxCell>
      </root>
    </mxGraphModel>
  </diagram>
</mxfile>
